<svg xmlns="http://www.w3.org/2000/svg" width="1200" height="540" viewBox="0 0 1200 540" role="img" aria-label="Synthetic demo banner">
  <rect width="1200" height="540" fill="#eef4ff"/>
  <rect x="54" y="54" width="1092" height="452" rx="18" fill="#ffffff" stroke="#d4deee" stroke-width="2"/>
  <rect x="86" y="94" width="384" height="70" rx="14" fill="#1d4ed8"/>
  <text x="278" y="140" text-anchor="middle" fill="#ffffff" font-family="Trebuchet MS, Arial, sans-serif" font-size="32" font-weight="800">Demo Product Launch</text>
  <text x="88" y="238" fill="#0f172a" font-family="Trebuchet MS, Arial, sans-serif" font-size="64" font-weight="800">Review Before Render</text>
  <text x="90" y="294" fill="#526071" font-family="Trebuchet MS, Arial, sans-serif" font-size="28">Mark corrections on this HTML canvas.</text>
  <rect x="90" y="360" width="280" height="96" rx="14" fill="#f1f5ff" stroke="#bdd0ff"/>
  <text x="118" y="400" fill="#0f172a" font-family="Trebuchet MS, Arial, sans-serif" font-size="24" font-weight="800">Fix list</text>
  <text x="118" y="434" fill="#526071" font-family="Trebuchet MS, Arial, sans-serif" font-size="20">source first</text>
  <rect x="410" y="360" width="280" height="96" rx="14" fill="#eefcf6" stroke="#a7f3d0"/>
  <text x="438" y="400" fill="#0f172a" font-family="Trebuchet MS, Arial, sans-serif" font-size="24" font-weight="800">Generate</text>
  <text x="438" y="434" fill="#526071" font-family="Trebuchet MS, Arial, sans-serif" font-size="20">after approval</text>
  <circle cx="930" cy="334" r="148" fill="#111827"/>
  <circle cx="930" cy="334" r="104" fill="#2563eb"/>
  <text x="930" y="324" text-anchor="middle" dominant-baseline="middle" fill="#ffffff" font-family="Trebuchet MS, Arial, sans-serif" font-size="36" font-weight="800">MEDIA</text>
  <text x="930" y="374" text-anchor="middle" dominant-baseline="middle" fill="#dbeafe" font-family="Trebuchet MS, Arial, sans-serif" font-size="22">annotation</text>
  <g aria-label="Cute accent illustration">
    <circle cx="1055" cy="130" r="34" fill="#fef3c7" stroke="#f59e0b" stroke-width="3"/>
    <circle cx="1043" cy="122" r="4" fill="#0f172a"/>
    <circle cx="1067" cy="122" r="4" fill="#0f172a"/>
    <path d="M1044 140 Q1055 151 1068 140" fill="none" stroke="#0f172a" stroke-width="4" stroke-linecap="round"/>
    <path d="M1002 120 L1013 126 L1002 132 L996 143 L990 132 L979 126 L990 120 L996 109 Z" fill="#f472b6"/>
    <path d="M1112 90 L1122 96 L1112 102 L1106 112 L1100 102 L1090 96 L1100 90 L1106 80 Z" fill="#60a5fa"/>
  </g>
</svg>
